#!OML:ASF E:\motion texture\Top Level 1\Subject 1\Session 1\male.ASF
:FULLY-SPECIFIED
:DEGREES
711
root -49.6152 18.0643 2.43591 72.9391 -79.3071 -68.899
lowerback -0.476737 1.40263 9.65191
upperback -0.574114 1.66844 5.2694
thorax -0.200405 0.730183 0.0648361
lowerneck -17.4609 -2.76556 -6.02518
upperneck 23.4405 -3.01894 2.43678
head 10.5452 -1.71783 1.43645
rclavicle 2.6339e-015 7.95139e-015
rhumerus -48.6203 -45.4807 -45.8885
rradius 14.1515
rwrist 57.1925
rhand -13.3328 -27.4887
rfingers 7.12502
rthumb 12.7724 -417.078
lclavicle 2.6339e-015 7.95139e-015
lhumerus -38.634 28.1373 66.0586
lradius 22.6573
lwrist -29.9845
lhand -11.3415 25.0303
lfingers 7.12502
lthumb 14.6915 54.4898
rfemur -7.66553 -0.235869 34.6759
rtibia 15.5688
rfoot -8.33341 -9.66035
rtoes 19.0196
lfemur -29.5515 2.14456 -5.7439
ltibia 39.1245
lfoot -6.4459 -0.198906
ltoes -1.75964
712
root -49.711 18.0556 2.43694 76.4439 -79.3873 -72.2603
lowerback -0.483524 1.44771 9.73361
upperback -0.714591 1.73586 5.31734
thorax -0.337267 0.753049 0.0691446
lowerneck -17.4797 -2.6188 -5.96613
upperneck 23.7595 -2.82734 2.36802
head 10.6542 -1.64137 1.42972
rclavicle 2.0773e-014 -7.15625e-015
rhumerus -45.8912 -44.9555 -48.0469
rradius 14.3659
rwrist 55.3852
rhand -14.5711 -27.9931
rfingers 7.12502
rthumb 11.5784 -417.653
lclavicle 2.0773e-014 -7.15625e-015
lhumerus -38.1825 27.6335 66.548
lradius 22.915
lwrist -29.6443
lhand -11.1093 25.0697
lfingers 7.12502
lthumb 14.9152 54.5127
rfemur -7.5042 -0.0429915 34.8727
rtibia 15.6922
rfoot -8.54103 -9.29806
rtoes 18.4713
lfemur -29.5515 2.14456 -5.7439
ltibia 39.1245
lfoot -6.4459 -0.198906
ltoes -1.75964
713
root -49.8168 18.0437 2.44257 79.7084 -79.5186 -75.4231
lowerback -0.7041 1.4732 9.77771
upperback -0.768261 1.74046 5.31749
thorax -0.267183 0.755165 0.0501315
lowerneck -17.344 -2.46052 -5.74068
upperneck 23.923 -2.62869 2.13113
head 10.6717 -1.56612 1.33645
rclavicle 1.6201e-014 3.57812e-014
rhumerus -43.0128 -44.2016 -50.4656
rradius 14.6904
rwrist 53.1282
rhand -15.423 -28.8151
rfingers 7.12502
rthumb 10.7567 -418.52
lclavicle 1.6201e-014 3.57812e-014
lhumerus -37.7153 26.9828 67.1038
lradius 23.293
lwrist -29.1032
lhand -11.0231 25.1206
lfingers 7.12502
lthumb 14.9982 54.5575
rfemur -7.19678 -0.0799827 34.8958
rtibia 15.7011
rfoot -8.81584 -8.71734
rtoes 18.2672
lfemur -29.5515 2.14456 -5.7439
ltibia 39.1245
lfoot -6.4459 -0.198906
ltoes -1.75964
714
root -49.9202 18.0321 2.44835 82.9529 -79.5476 -78.5614
lowerback -0.878547 1.46552 9.86457
upperback -0.783076 1.70156 5.34588
thorax -0.185234 0.736135 0.035952
lowerneck -17.4878 -2.2682 -5.54851
upperneck 24.1803 -2.37638 1.98682
head 10.7779 -1.45625 1.28796
rclavicle -8.62228e-015 6.83819e-014
rhumerus -40.0039 -43.3125 -53.0149
rradius 15.1144
rwrist 50.6019
rhand -15.9772 -29.3487
rfingers 7.12502
rthumb 10.2221 -419.08
lclavicle -8.62228e-015 6.83819e-014
lhumerus -37.1581 26.56 67.5814
lradius 23.5011
lwrist -28.7674
lhand -11.188 24.8082
lfingers 7.12502
lthumb 14.8394 54.2568
rfemur -6.94763 -0.106308 34.984
rtibia 15.7812
rfoot -9.10828 -8.13773
rtoes 18.1381
lfemur -29.5515 2.14456 -5.7439
ltibia 39.1245
lfoot -6.4459 -0.198906
ltoes -1.75964
715
root -50.0197 18.0215 2.4514 86.6974 -79.5141 -82.1613
lowerback -1.00683 1.50464 9.96449
upperback -0.891544 1.73935 5.38277
thorax -0.221444 0.748163 0.0222827
lowerneck -17.3569 -2.10249 -5.28335
upperneck 24.3391 -2.1614 1.69223
head 10.7951 -1.3771 1.16892
rclavicle 2.2413e-014 -3.97569e-014
rhumerus -37.2312 -42.2223 -55.3795
rradius 15.5351
rwrist 47.6669
rhand -16.7573 -29.5318
rfingers 7.12502
rthumb 9.46955 -419.299
lclavicle 2.2413e-014 -3.97569e-014
lhumerus -36.7814 25.8347 68.1109
lradius 23.9246
lwrist -28.2639
lhand -11.2656 24.5039
lfingers 7.12502
lthumb 14.7646 53.9581
rfemur -6.81265 0.0279505 35.1385
rtibia 15.9795
rfoot -9.3942 -7.65306
rtoes 17.8541
lfemur -29.5515 2.14456 -5.7439
ltibia 39.1245
lfoot -6.4459 -0.198906
ltoes -1.75964
716
root -50.1096 18.0105 2.45039 90.8174 -79.5057 -86.1226
lowerback -1.03607 1.56453 9.94753
upperback -1.00118 1.82229 5.40502
thorax -0.314451 0.78197 0.0552441
lowerneck -17.3594 -1.95671 -5.20399
upperneck 24.5911 -1.98927 1.68074
head 10.8805 -1.30024 1.17632
rclavicle 5.91384e-015 -3.33958e-014
rhumerus -34.593 -40.9866 -57.7137
rradius 16.2329
rwrist 44.689
rhand -17.129 -29.7698
rfingers 7.12502
rthumb 9.11091 -419.553
lclavicle 5.91384e-015 -3.33958e-014
lhumerus -36.3823 25.1621 68.6103
lradius 24.256
lwrist -27.9375
lhand -11.198 24.6104
lfingers 7.12502
lthumb 14.8298 54.0597
rfemur -6.82237 0.449206 35.2447
rtibia 16.349
rfoot -9.70705 -7.37331
rtoes 17.6441
lfemur -29.5515 2.14456 -5.7439
ltibia 39.1245
lfoot -6.4459 -0.198906
ltoes -1.75964
